# xmcd
#
# Track frame offsets:
#	150
#	20242
#	38342
#	57797
#	78867
#	95730
#	115542
#	133557
#	148917
#	166105
#	184455
#	204045
#	221160
#
# Disc length: 3127 seconds
#
# Revision: 8
# Processed by: cddbd v1.5.2PL0 Copyright (c) Steve Scherf et al.
# Submitted via: Jack! The Knife 19 Blackthorn
#
DISCID=af0c350d
DTITLE=Gotthard - Open
DYEAR=1999
DGENRE=Hard Rock
TTITLE0=Free And Alive
TTITLE1=Vision
TTITLE2=Got To Be Love
TTITLE3=Let It Rain
TTITLE4=Blackberry Way
TTITLE5=You
TTITLE6=Cheat and Hide
TTITLE7=Want You In
TTITLE8=Tell No Lies
TTITLE9=Back To You
TTITLE10=Best Time
TTITLE11=Hey Jimi
TTITLE12=Peace Of Mind
EXTD=Chris Von Rohr
EXTT0=Lee, Leoni, Von Rohr
EXTT1=Lee, Meyer, Von Rohr
EXTT2=Lee, Leoni, Von Rohr
EXTT3=Lee, Leoni, Von Rohr
EXTT4=Roy Wood
EXTT5=Lee, Meyer, Von Rohr
EXTT6=Lee, Leoni, Von Rohr
EXTT7=Lee, Meyer
EXTT8=Lee, Leoni, Von Rohr
EXTT9=Lee, Leoni, Von Rohr
EXTT10=Lee, Leoni, Von Rohr
EXTT11=Lee, Leoni, Von Rohr
EXTT12=Lee, Leoni, Von Rohr
PLAYORDER=
